# xmcd CD database file
#
# Track frame offsets:
#	150
#	17970
#	37666
#	54006
#	71663
#	91359
#
# Disc length: 1434 seconds
#
# Revision: 7
# Processed by: cddbd v1.5.2PL0 Copyright (c) Steve Scherf et al.
# Submitted via: CDex 1.70beta3
#
DISCID=3f059806
DTITLE=朝比奈みくる - 涼宮ハルヒの憂鬱　キャラクターソングVol.3
DYEAR=2006
DGENRE=Anime
TTITLE0=見つけてHappyLife
TTITLE1=時のパズル
TTITLE2=ハレ晴レユカイ
TTITLE3=見つけてHappyLife(off vocal)
TTITLE4=時のパズル(off vocal)
TTITLE5=ハレ晴レユカイ(off vocal)
EXTD=YEAR: 2006
EXTT0=
EXTT1=
EXTT2=
EXTT3=
EXTT4=
EXTT5=
PLAYORDER=
